<svg width="16" height="18" viewBox="0 0 16 18" fill="none" xmlns="http://www.w3.org/2000/svg">
<path d="M15.373 5.42182C15.1021 5.21865 14.6958 5.15093 14.3571 5.21865C14.0185 5.28637 13.6799 5.48954 13.4767 5.82815C12.5286 7.31804 10.2938 7.38576 10.2938 7.38576H10.2261C6.70451 7.38576 5.35007 10.4333 5.28234 10.5687C5.01145 11.2459 5.28234 12.0586 5.95957 12.3295C6.09501 12.3972 6.29818 12.4649 6.50135 12.4649C7.04312 12.4649 7.51718 12.1263 7.78807 11.6523C8.12668 11.0428 8.60074 10.5687 9.27796 10.2978V12.7358C9.21024 13.2099 8.93935 13.6162 8.53302 13.8871C8.05896 14.2257 7.31401 14.4289 6.43362 14.4289C5.41779 14.4289 4.60512 14.0903 3.99562 13.4131C3.38612 12.7358 3.04751 11.6523 3.04751 10.2978V6.64082C3.11523 5.42182 3.38612 4.54143 3.99562 3.93192C4.60512 3.2547 5.41779 2.91609 6.43362 2.91609C7.31401 2.91609 7.99124 3.11926 8.53302 3.45787C8.93935 3.72876 9.21024 4.20281 9.27796 4.74459V4.81231C9.27796 5.69271 9.95519 6.36993 10.8356 6.36993C11.716 6.36993 12.3932 5.69271 12.3932 4.81231V4.4737C12.3255 3.79648 12.1223 3.18698 11.7837 2.6452C11.4451 2.10342 11.0387 1.56164 10.497 1.22303C9.41341 0.410362 8.05896 0.00402832 6.43362 0.00402832C4.5374 0.00402832 2.97978 0.681252 1.76078 1.90025C0.677223 3.11926 0.0677224 4.67687 0 6.50537C0 6.5731 0 6.5731 0 6.64082V6.77626C0 6.84399 0 6.84398 0 6.91171V10.2301C0 12.2618 0.609501 13.9548 1.76078 15.2416C2.91206 16.5283 4.5374 17.1378 6.43362 17.1378C7.99124 17.1378 9.34568 16.7314 10.4292 15.9865C11.4451 15.3093 12.1223 14.2257 12.2577 13.0067L12.3255 9.68832C13.409 9.34971 14.7635 8.67249 15.6439 7.31804C15.847 7.04715 15.9825 6.64082 15.9148 6.30221C15.9148 5.96359 15.6439 5.62498 15.373 5.42182Z" fill="white"/>
<path d="M9.27793 4.60887C9.27793 5.48926 9.95516 6.2342 10.8355 6.2342C11.7159 6.2342 12.3932 5.55698 12.3932 4.67659V4.47342C12.3254 3.7962 12.1223 3.1867 11.7837 2.64492C11.445 2.10314 11.1742 1.76453 10.4969 1.22275C8.73615 -0.131698 6.43359 0.0037471 6.43359 0.0037471C8.73615 0.884138 9.27793 3.7962 9.27793 4.60887Z" fill="white"/>
<path d="M15.3727 5.42101C15.1018 5.21784 14.6954 5.15012 14.3568 5.21784C14.0182 5.28556 13.6796 5.48873 13.4764 5.82734C12.5283 7.31723 10.2935 7.38495 10.2935 7.38495H10.2258C6.7042 7.38495 5.34975 10.4325 5.28203 10.5679C5.01114 11.2451 5.28203 12.0578 5.95925 12.3287C6.0947 12.3964 6.29786 12.4641 6.50103 12.4641C7.04281 12.4641 7.51687 12.1255 7.78776 11.6515C7.78776 11.5837 8.32953 10.6356 9.27765 10.297C10.4289 9.89068 10.9707 10.2293 12.3929 9.75524C13.4764 9.41662 14.8309 8.7394 15.7113 7.38495C15.9144 7.11407 16.0499 6.70773 15.9822 6.36912C15.9144 5.96279 15.6435 5.62417 15.3727 5.42101Z" fill="#DCDCDC"/>
<path d="M15.373 5.42101C15.1021 5.21784 14.6957 5.15012 14.3571 5.21784C14.0185 5.28556 13.6799 5.48873 13.4767 5.82734C12.5286 7.31723 10.2261 7.38495 10.2261 7.38495C12.5964 6.97862 13.6122 10.4325 15.7116 7.38495C15.9148 7.11407 16.0502 6.70773 15.9825 6.36912C15.9148 5.96279 15.6439 5.62417 15.373 5.42101Z" fill="white"/>
</svg>
